<mxfile host="app.diagrams.net" modified="2021-06-24T10:33:06.997Z" agent="5.0 (X11; Linux x86_64) AppleWebKit/537.36 (KHTML, like Gecko) Chrome/91.0.4472.106 Safari/537.36" etag="BLHM03RAPYIrmWGjP07E" version="14.8.0" type="github">
  <diagram id="PPxUoKqHqH0vDtefEOQF" name="Page-1">
    <mxGraphModel dx="1362" dy="778" grid="1" gridSize="10" guides="1" tooltips="1" connect="1" arrows="1" fold="1" page="1" pageScale="1" pageWidth="827" pageHeight="1169" math="0" shadow="0">
      <root>
        <mxCell id="0" />
        <mxCell id="1" parent="0" />
        <mxCell id="vcSrWgzj6TOkUDUvabuK-1" value="" style="whiteSpace=wrap;html=1;aspect=fixed;" vertex="1" parent="1">
          <mxGeometry x="70" y="70" width="80" height="80" as="geometry" />
        </mxCell>
        <mxCell id="vcSrWgzj6TOkUDUvabuK-3" value="" style="endArrow=classic;html=1;exitX=1;exitY=0.5;exitDx=0;exitDy=0;" edge="1" parent="1" source="vcSrWgzj6TOkUDUvabuK-1">
          <mxGeometry width="50" height="50" relative="1" as="geometry">
            <mxPoint x="330" y="340" as="sourcePoint" />
            <mxPoint x="380" y="110" as="targetPoint" />
            <Array as="points">
              <mxPoint x="250" y="110" />
            </Array>
          </mxGeometry>
        </mxCell>
        <mxCell id="vcSrWgzj6TOkUDUvabuK-4" value="Client" style="text;html=1;strokeColor=none;fillColor=none;align=center;verticalAlign=middle;whiteSpace=wrap;rounded=0;" vertex="1" parent="1">
          <mxGeometry x="90" y="90" width="40" height="20" as="geometry" />
        </mxCell>
        <mxCell id="vcSrWgzj6TOkUDUvabuK-11" value="(Presenter)" style="text;html=1;strokeColor=none;fillColor=none;align=center;verticalAlign=middle;whiteSpace=wrap;rounded=0;" vertex="1" parent="1">
          <mxGeometry x="35" y="110" width="150" height="20" as="geometry" />
        </mxCell>
        <mxCell id="vcSrWgzj6TOkUDUvabuK-13" value="" style="group" vertex="1" connectable="0" parent="1">
          <mxGeometry x="380" y="30" width="266" height="180" as="geometry" />
        </mxCell>
        <mxCell id="vcSrWgzj6TOkUDUvabuK-7" value="" style="rounded=0;whiteSpace=wrap;html=1;" vertex="1" parent="vcSrWgzj6TOkUDUvabuK-13">
          <mxGeometry width="266" height="180" as="geometry" />
        </mxCell>
        <mxCell id="vcSrWgzj6TOkUDUvabuK-10" value="&lt;h1&gt;Application Server&lt;/h1&gt;&lt;p&gt;It acts as a signalling server and handles the setup and functioning of connection with Kurento media server&lt;/p&gt;" style="text;html=1;strokeColor=none;fillColor=none;spacing=5;spacingTop=-20;whiteSpace=wrap;overflow=hidden;rounded=0;" vertex="1" parent="vcSrWgzj6TOkUDUvabuK-13">
          <mxGeometry x="6" y="40" width="250" height="100" as="geometry" />
        </mxCell>
        <mxCell id="vcSrWgzj6TOkUDUvabuK-14" value="1. roomId, sdpOffer" style="text;html=1;strokeColor=none;fillColor=none;align=center;verticalAlign=middle;whiteSpace=wrap;rounded=0;" vertex="1" parent="1">
          <mxGeometry x="175" y="80" width="170" height="20" as="geometry" />
        </mxCell>
        <mxCell id="vcSrWgzj6TOkUDUvabuK-66" style="edgeStyle=orthogonalEdgeStyle;rounded=0;orthogonalLoop=1;jettySize=auto;html=1;entryX=0.541;entryY=-0.017;entryDx=0;entryDy=0;entryPerimeter=0;" edge="1" parent="1" source="vcSrWgzj6TOkUDUvabuK-15" target="vcSrWgzj6TOkUDUvabuK-23">
          <mxGeometry relative="1" as="geometry" />
        </mxCell>
        <mxCell id="vcSrWgzj6TOkUDUvabuK-15" value="" style="rounded=0;whiteSpace=wrap;html=1;" vertex="1" parent="1">
          <mxGeometry x="380" y="270" width="260" height="60" as="geometry" />
        </mxCell>
        <mxCell id="vcSrWgzj6TOkUDUvabuK-16" value="&lt;font style=&quot;font-size: 16px&quot;&gt;Kurento Client&lt;/font&gt;" style="text;html=1;strokeColor=none;fillColor=none;align=center;verticalAlign=middle;whiteSpace=wrap;rounded=0;" vertex="1" parent="1">
          <mxGeometry x="430" y="290" width="170" height="20" as="geometry" />
        </mxCell>
        <mxCell id="vcSrWgzj6TOkUDUvabuK-17" value="" style="endArrow=classic;startArrow=classic;html=1;entryX=0.5;entryY=1;entryDx=0;entryDy=0;" edge="1" parent="1" source="vcSrWgzj6TOkUDUvabuK-15" target="vcSrWgzj6TOkUDUvabuK-7">
          <mxGeometry width="50" height="50" relative="1" as="geometry">
            <mxPoint x="390" y="380" as="sourcePoint" />
            <mxPoint x="506" y="220" as="targetPoint" />
          </mxGeometry>
        </mxCell>
        <mxCell id="vcSrWgzj6TOkUDUvabuK-22" value="" style="group" vertex="1" connectable="0" parent="1">
          <mxGeometry x="140" y="470" width="240" height="60" as="geometry" />
        </mxCell>
        <mxCell id="vcSrWgzj6TOkUDUvabuK-18" value="" style="rounded=0;whiteSpace=wrap;html=1;" vertex="1" parent="vcSrWgzj6TOkUDUvabuK-22">
          <mxGeometry width="240" height="60" as="geometry" />
        </mxCell>
        <mxCell id="vcSrWgzj6TOkUDUvabuK-19" value="&lt;font style=&quot;font-size: 14px&quot;&gt;3. Create media pipeline&lt;/font&gt;" style="text;html=1;strokeColor=none;fillColor=none;align=center;verticalAlign=middle;whiteSpace=wrap;rounded=0;" vertex="1" parent="vcSrWgzj6TOkUDUvabuK-22">
          <mxGeometry x="30" y="20" width="180" height="20" as="geometry" />
        </mxCell>
        <mxCell id="vcSrWgzj6TOkUDUvabuK-29" value="" style="group" vertex="1" connectable="0" parent="1">
          <mxGeometry x="240" y="580" width="250" height="60" as="geometry" />
        </mxCell>
        <mxCell id="vcSrWgzj6TOkUDUvabuK-21" value="" style="rounded=0;whiteSpace=wrap;html=1;" vertex="1" parent="vcSrWgzj6TOkUDUvabuK-29">
          <mxGeometry width="250" height="60" as="geometry" />
        </mxCell>
        <mxCell id="vcSrWgzj6TOkUDUvabuK-28" value="4. Create WebRTC Endpoint" style="text;html=1;strokeColor=none;fillColor=none;align=center;verticalAlign=middle;whiteSpace=wrap;rounded=0;" vertex="1" parent="vcSrWgzj6TOkUDUvabuK-29">
          <mxGeometry x="40" y="20" width="170" height="20" as="geometry" />
        </mxCell>
        <mxCell id="vcSrWgzj6TOkUDUvabuK-33" value="" style="group" vertex="1" connectable="0" parent="1">
          <mxGeometry x="330" y="680" width="190" height="60" as="geometry" />
        </mxCell>
        <mxCell id="vcSrWgzj6TOkUDUvabuK-31" value="" style="rounded=0;whiteSpace=wrap;html=1;" vertex="1" parent="vcSrWgzj6TOkUDUvabuK-33">
          <mxGeometry width="190" height="60" as="geometry" />
        </mxCell>
        <mxCell id="vcSrWgzj6TOkUDUvabuK-32" value="6. Process Offer" style="text;html=1;strokeColor=none;fillColor=none;align=center;verticalAlign=middle;whiteSpace=wrap;rounded=0;" vertex="1" parent="vcSrWgzj6TOkUDUvabuK-33">
          <mxGeometry x="40.19230769230769" y="20" width="109.6153846153846" height="20" as="geometry" />
        </mxCell>
        <mxCell id="vcSrWgzj6TOkUDUvabuK-34" value="" style="endArrow=classic;html=1;exitX=1;exitY=0.25;exitDx=0;exitDy=0;entryX=0;entryY=0.25;entryDx=0;entryDy=0;" edge="1" parent="1" source="vcSrWgzj6TOkUDUvabuK-49" target="vcSrWgzj6TOkUDUvabuK-31">
          <mxGeometry width="50" height="50" relative="1" as="geometry">
            <mxPoint x="390" y="390" as="sourcePoint" />
            <mxPoint x="440" y="340" as="targetPoint" />
          </mxGeometry>
        </mxCell>
        <mxCell id="vcSrWgzj6TOkUDUvabuK-37" style="edgeStyle=orthogonalEdgeStyle;rounded=0;orthogonalLoop=1;jettySize=auto;html=1;entryX=1;entryY=0.5;entryDx=0;entryDy=0;" edge="1" parent="1" source="vcSrWgzj6TOkUDUvabuK-35" target="vcSrWgzj6TOkUDUvabuK-31">
          <mxGeometry relative="1" as="geometry" />
        </mxCell>
        <mxCell id="vcSrWgzj6TOkUDUvabuK-39" value="" style="group" vertex="1" connectable="0" parent="1">
          <mxGeometry x="580" y="680" width="170" height="60" as="geometry" />
        </mxCell>
        <mxCell id="vcSrWgzj6TOkUDUvabuK-35" value="" style="rounded=0;whiteSpace=wrap;html=1;" vertex="1" parent="vcSrWgzj6TOkUDUvabuK-39">
          <mxGeometry width="170" height="60" as="geometry" />
        </mxCell>
        <mxCell id="vcSrWgzj6TOkUDUvabuK-38" value="7. Generate Answer" style="text;html=1;strokeColor=none;fillColor=none;align=center;verticalAlign=middle;whiteSpace=wrap;rounded=0;" vertex="1" parent="vcSrWgzj6TOkUDUvabuK-39">
          <mxGeometry x="5" y="20" width="160" height="20" as="geometry" />
        </mxCell>
        <mxCell id="vcSrWgzj6TOkUDUvabuK-40" style="edgeStyle=orthogonalEdgeStyle;rounded=0;orthogonalLoop=1;jettySize=auto;html=1;entryX=1;entryY=0.956;entryDx=0;entryDy=0;entryPerimeter=0;" edge="1" parent="1" source="vcSrWgzj6TOkUDUvabuK-38" target="vcSrWgzj6TOkUDUvabuK-7">
          <mxGeometry relative="1" as="geometry" />
        </mxCell>
        <mxCell id="vcSrWgzj6TOkUDUvabuK-41" value="8. SDP Answer" style="text;html=1;strokeColor=none;fillColor=none;align=center;verticalAlign=middle;whiteSpace=wrap;rounded=0;" vertex="1" parent="1">
          <mxGeometry x="670" y="360" width="120" height="20" as="geometry" />
        </mxCell>
        <mxCell id="vcSrWgzj6TOkUDUvabuK-44" value="" style="endArrow=classic;html=1;entryX=1;entryY=0.9;entryDx=0;entryDy=0;entryPerimeter=0;" edge="1" parent="1" target="vcSrWgzj6TOkUDUvabuK-1">
          <mxGeometry width="50" height="50" relative="1" as="geometry">
            <mxPoint x="379" y="142" as="sourcePoint" />
            <mxPoint x="440" y="330" as="targetPoint" />
          </mxGeometry>
        </mxCell>
        <mxCell id="vcSrWgzj6TOkUDUvabuK-45" value="9. SDP Answer" style="text;html=1;strokeColor=none;fillColor=none;align=center;verticalAlign=middle;whiteSpace=wrap;rounded=0;" vertex="1" parent="1">
          <mxGeometry x="210" y="150" width="120" height="20" as="geometry" />
        </mxCell>
        <mxCell id="vcSrWgzj6TOkUDUvabuK-46" value="" style="endArrow=classic;html=1;exitX=0.375;exitY=1;exitDx=0;exitDy=0;exitPerimeter=0;entryX=-0.008;entryY=0.911;entryDx=0;entryDy=0;entryPerimeter=0;" edge="1" parent="1" source="vcSrWgzj6TOkUDUvabuK-1" target="vcSrWgzj6TOkUDUvabuK-7">
          <mxGeometry width="50" height="50" relative="1" as="geometry">
            <mxPoint x="390" y="480" as="sourcePoint" />
            <mxPoint x="440" y="430" as="targetPoint" />
            <Array as="points">
              <mxPoint x="100" y="230" />
              <mxPoint x="240" y="230" />
              <mxPoint x="240" y="194" />
            </Array>
          </mxGeometry>
        </mxCell>
        <mxCell id="vcSrWgzj6TOkUDUvabuK-47" value="10. Ice Candidate, roomId" style="text;html=1;strokeColor=none;fillColor=none;align=center;verticalAlign=middle;whiteSpace=wrap;rounded=0;" vertex="1" parent="1">
          <mxGeometry x="90" y="240" width="170" height="20" as="geometry" />
        </mxCell>
        <mxCell id="vcSrWgzj6TOkUDUvabuK-52" value="" style="group" vertex="1" connectable="0" parent="1">
          <mxGeometry x="150" y="680" width="120" height="60" as="geometry" />
        </mxCell>
        <mxCell id="vcSrWgzj6TOkUDUvabuK-49" value="" style="rounded=0;whiteSpace=wrap;html=1;" vertex="1" parent="vcSrWgzj6TOkUDUvabuK-52">
          <mxGeometry width="120" height="60" as="geometry" />
        </mxCell>
        <mxCell id="vcSrWgzj6TOkUDUvabuK-51" value="WebRTC endpoint" style="text;html=1;strokeColor=none;fillColor=none;align=center;verticalAlign=middle;whiteSpace=wrap;rounded=0;" vertex="1" parent="vcSrWgzj6TOkUDUvabuK-52">
          <mxGeometry x="10" y="20" width="100" height="20" as="geometry" />
        </mxCell>
        <mxCell id="vcSrWgzj6TOkUDUvabuK-48" value="" style="endArrow=classic;html=1;entryX=0;entryY=0.5;entryDx=0;entryDy=0;exitX=0;exitY=1;exitDx=0;exitDy=0;" edge="1" parent="1" source="vcSrWgzj6TOkUDUvabuK-7" target="vcSrWgzj6TOkUDUvabuK-49">
          <mxGeometry width="50" height="50" relative="1" as="geometry">
            <mxPoint x="440" y="350" as="sourcePoint" />
            <mxPoint x="40" y="540" as="targetPoint" />
            <Array as="points">
              <mxPoint x="350" y="290" />
              <mxPoint x="120" y="290" />
              <mxPoint x="120" y="710" />
            </Array>
          </mxGeometry>
        </mxCell>
        <mxCell id="vcSrWgzj6TOkUDUvabuK-54" value="" style="group" vertex="1" connectable="0" parent="1">
          <mxGeometry x="390" y="360" width="220" height="60" as="geometry" />
        </mxCell>
        <mxCell id="vcSrWgzj6TOkUDUvabuK-23" value="" style="rounded=0;whiteSpace=wrap;html=1;" vertex="1" parent="vcSrWgzj6TOkUDUvabuK-54">
          <mxGeometry width="220" height="60" as="geometry" />
        </mxCell>
        <mxCell id="vcSrWgzj6TOkUDUvabuK-26" value="2.Create Room" style="text;html=1;strokeColor=none;fillColor=none;align=center;verticalAlign=middle;whiteSpace=wrap;rounded=0;" vertex="1" parent="vcSrWgzj6TOkUDUvabuK-54">
          <mxGeometry x="50" y="20" width="120" height="20" as="geometry" />
        </mxCell>
        <mxCell id="vcSrWgzj6TOkUDUvabuK-57" style="edgeStyle=orthogonalEdgeStyle;rounded=0;orthogonalLoop=1;jettySize=auto;html=1;entryX=0.458;entryY=0.033;entryDx=0;entryDy=0;entryPerimeter=0;" edge="1" parent="1" source="vcSrWgzj6TOkUDUvabuK-55" target="vcSrWgzj6TOkUDUvabuK-18">
          <mxGeometry relative="1" as="geometry" />
        </mxCell>
        <mxCell id="vcSrWgzj6TOkUDUvabuK-56" style="edgeStyle=orthogonalEdgeStyle;rounded=0;orthogonalLoop=1;jettySize=auto;html=1;entryX=1;entryY=0.5;entryDx=0;entryDy=0;" edge="1" parent="1" source="vcSrWgzj6TOkUDUvabuK-23" target="vcSrWgzj6TOkUDUvabuK-55">
          <mxGeometry relative="1" as="geometry" />
        </mxCell>
        <mxCell id="vcSrWgzj6TOkUDUvabuK-59" value="" style="group" vertex="1" connectable="0" parent="1">
          <mxGeometry x="190" y="360" width="120" height="60" as="geometry" />
        </mxCell>
        <mxCell id="vcSrWgzj6TOkUDUvabuK-55" value="" style="rounded=0;whiteSpace=wrap;html=1;" vertex="1" parent="vcSrWgzj6TOkUDUvabuK-59">
          <mxGeometry width="120" height="60" as="geometry" />
        </mxCell>
        <mxCell id="vcSrWgzj6TOkUDUvabuK-58" value="Room" style="text;html=1;strokeColor=none;fillColor=none;align=center;verticalAlign=middle;whiteSpace=wrap;rounded=0;" vertex="1" parent="vcSrWgzj6TOkUDUvabuK-59">
          <mxGeometry x="40" y="20" width="40" height="20" as="geometry" />
        </mxCell>
        <mxCell id="vcSrWgzj6TOkUDUvabuK-63" style="edgeStyle=orthogonalEdgeStyle;rounded=0;orthogonalLoop=1;jettySize=auto;html=1;" edge="1" parent="1" source="vcSrWgzj6TOkUDUvabuK-60" target="vcSrWgzj6TOkUDUvabuK-21">
          <mxGeometry relative="1" as="geometry" />
        </mxCell>
        <mxCell id="vcSrWgzj6TOkUDUvabuK-60" value="" style="rounded=0;whiteSpace=wrap;html=1;" vertex="1" parent="1">
          <mxGeometry x="414" y="470" width="120" height="60" as="geometry" />
        </mxCell>
        <mxCell id="vcSrWgzj6TOkUDUvabuK-61" value="Pipeline" style="text;html=1;strokeColor=none;fillColor=none;align=center;verticalAlign=middle;whiteSpace=wrap;rounded=0;" vertex="1" parent="1">
          <mxGeometry x="454" y="490" width="40" height="20" as="geometry" />
        </mxCell>
        <mxCell id="vcSrWgzj6TOkUDUvabuK-62" style="edgeStyle=orthogonalEdgeStyle;rounded=0;orthogonalLoop=1;jettySize=auto;html=1;entryX=0;entryY=0.5;entryDx=0;entryDy=0;" edge="1" parent="1" source="vcSrWgzj6TOkUDUvabuK-19" target="vcSrWgzj6TOkUDUvabuK-60">
          <mxGeometry relative="1" as="geometry" />
        </mxCell>
        <mxCell id="vcSrWgzj6TOkUDUvabuK-64" style="edgeStyle=orthogonalEdgeStyle;rounded=0;orthogonalLoop=1;jettySize=auto;html=1;entryX=0.4;entryY=-0.067;entryDx=0;entryDy=0;entryPerimeter=0;" edge="1" parent="1" source="vcSrWgzj6TOkUDUvabuK-21" target="vcSrWgzj6TOkUDUvabuK-49">
          <mxGeometry relative="1" as="geometry">
            <mxPoint x="200" y="670" as="targetPoint" />
          </mxGeometry>
        </mxCell>
        <mxCell id="vcSrWgzj6TOkUDUvabuK-65" value="11, Process Ice Candidate" style="text;html=1;strokeColor=none;fillColor=none;align=center;verticalAlign=middle;whiteSpace=wrap;rounded=0;horizontal=0;" vertex="1" parent="1">
          <mxGeometry x="90" y="380" width="30" height="170" as="geometry" />
        </mxCell>
        <mxCell id="vcSrWgzj6TOkUDUvabuK-113" value="" style="group" vertex="1" connectable="0" parent="1">
          <mxGeometry x="76" y="910" width="724" height="710" as="geometry" />
        </mxCell>
        <mxCell id="vcSrWgzj6TOkUDUvabuK-67" value="" style="whiteSpace=wrap;html=1;aspect=fixed;" vertex="1" parent="vcSrWgzj6TOkUDUvabuK-113">
          <mxGeometry y="40" width="80" height="80" as="geometry" />
        </mxCell>
        <mxCell id="vcSrWgzj6TOkUDUvabuK-68" value="" style="endArrow=classic;html=1;exitX=1;exitY=0.5;exitDx=0;exitDy=0;" edge="1" parent="vcSrWgzj6TOkUDUvabuK-113" source="vcSrWgzj6TOkUDUvabuK-67">
          <mxGeometry width="50" height="50" relative="1" as="geometry">
            <mxPoint x="260" y="310" as="sourcePoint" />
            <mxPoint x="310" y="80" as="targetPoint" />
            <Array as="points">
              <mxPoint x="180" y="80" />
            </Array>
          </mxGeometry>
        </mxCell>
        <mxCell id="vcSrWgzj6TOkUDUvabuK-69" value="Client" style="text;html=1;strokeColor=none;fillColor=none;align=center;verticalAlign=middle;whiteSpace=wrap;rounded=0;" vertex="1" parent="vcSrWgzj6TOkUDUvabuK-113">
          <mxGeometry x="20" y="60" width="40" height="20" as="geometry" />
        </mxCell>
        <mxCell id="vcSrWgzj6TOkUDUvabuK-70" value="" style="group" vertex="1" connectable="0" parent="vcSrWgzj6TOkUDUvabuK-113">
          <mxGeometry x="310" width="266" height="180" as="geometry" />
        </mxCell>
        <mxCell id="vcSrWgzj6TOkUDUvabuK-71" value="" style="rounded=0;whiteSpace=wrap;html=1;" vertex="1" parent="vcSrWgzj6TOkUDUvabuK-70">
          <mxGeometry width="266" height="180" as="geometry" />
        </mxCell>
        <mxCell id="vcSrWgzj6TOkUDUvabuK-72" value="&lt;h1&gt;Application Server&lt;/h1&gt;&lt;p&gt;It acts as a signalling server and handles the setup and functioning of connection with Kurento media server&lt;/p&gt;" style="text;html=1;strokeColor=none;fillColor=none;spacing=5;spacingTop=-20;whiteSpace=wrap;overflow=hidden;rounded=0;" vertex="1" parent="vcSrWgzj6TOkUDUvabuK-70">
          <mxGeometry x="6" y="40" width="250" height="100" as="geometry" />
        </mxCell>
        <mxCell id="vcSrWgzj6TOkUDUvabuK-73" value="1. roomId, sdpOffer" style="text;html=1;strokeColor=none;fillColor=none;align=center;verticalAlign=middle;whiteSpace=wrap;rounded=0;" vertex="1" parent="vcSrWgzj6TOkUDUvabuK-113">
          <mxGeometry x="105" y="50" width="170" height="20" as="geometry" />
        </mxCell>
        <mxCell id="vcSrWgzj6TOkUDUvabuK-75" value="" style="rounded=0;whiteSpace=wrap;html=1;" vertex="1" parent="vcSrWgzj6TOkUDUvabuK-113">
          <mxGeometry x="310" y="240" width="260" height="60" as="geometry" />
        </mxCell>
        <mxCell id="vcSrWgzj6TOkUDUvabuK-76" value="&lt;font style=&quot;font-size: 16px&quot;&gt;Kurento Client&lt;/font&gt;" style="text;html=1;strokeColor=none;fillColor=none;align=center;verticalAlign=middle;whiteSpace=wrap;rounded=0;" vertex="1" parent="vcSrWgzj6TOkUDUvabuK-113">
          <mxGeometry x="360" y="260" width="170" height="20" as="geometry" />
        </mxCell>
        <mxCell id="vcSrWgzj6TOkUDUvabuK-77" value="" style="endArrow=classic;startArrow=classic;html=1;entryX=0.5;entryY=1;entryDx=0;entryDy=0;" edge="1" parent="vcSrWgzj6TOkUDUvabuK-113" source="vcSrWgzj6TOkUDUvabuK-75" target="vcSrWgzj6TOkUDUvabuK-71">
          <mxGeometry width="50" height="50" relative="1" as="geometry">
            <mxPoint x="320" y="350" as="sourcePoint" />
            <mxPoint x="436" y="190" as="targetPoint" />
          </mxGeometry>
        </mxCell>
        <mxCell id="vcSrWgzj6TOkUDUvabuK-78" value="" style="group" vertex="1" connectable="0" parent="vcSrWgzj6TOkUDUvabuK-113">
          <mxGeometry x="70" y="440" width="240" height="60" as="geometry" />
        </mxCell>
        <mxCell id="vcSrWgzj6TOkUDUvabuK-79" value="" style="rounded=0;whiteSpace=wrap;html=1;" vertex="1" parent="vcSrWgzj6TOkUDUvabuK-78">
          <mxGeometry width="240" height="60" as="geometry" />
        </mxCell>
        <mxCell id="vcSrWgzj6TOkUDUvabuK-80" value="&lt;font style=&quot;font-size: 14px&quot;&gt;3. Get room media pipeline&lt;/font&gt;" style="text;html=1;strokeColor=none;fillColor=none;align=center;verticalAlign=middle;whiteSpace=wrap;rounded=0;" vertex="1" parent="vcSrWgzj6TOkUDUvabuK-78">
          <mxGeometry x="30" y="20" width="180" height="20" as="geometry" />
        </mxCell>
        <mxCell id="vcSrWgzj6TOkUDUvabuK-81" value="" style="group" vertex="1" connectable="0" parent="vcSrWgzj6TOkUDUvabuK-113">
          <mxGeometry x="170" y="550" width="250" height="60" as="geometry" />
        </mxCell>
        <mxCell id="vcSrWgzj6TOkUDUvabuK-82" value="" style="rounded=0;whiteSpace=wrap;html=1;" vertex="1" parent="vcSrWgzj6TOkUDUvabuK-81">
          <mxGeometry width="250" height="60" as="geometry" />
        </mxCell>
        <mxCell id="vcSrWgzj6TOkUDUvabuK-83" value="4. Create WebRTC Endpoint" style="text;html=1;strokeColor=none;fillColor=none;align=center;verticalAlign=middle;whiteSpace=wrap;rounded=0;" vertex="1" parent="vcSrWgzj6TOkUDUvabuK-81">
          <mxGeometry x="40" y="20" width="170" height="20" as="geometry" />
        </mxCell>
        <mxCell id="vcSrWgzj6TOkUDUvabuK-84" value="" style="group" vertex="1" connectable="0" parent="vcSrWgzj6TOkUDUvabuK-113">
          <mxGeometry x="260" y="650" width="190" height="60" as="geometry" />
        </mxCell>
        <mxCell id="vcSrWgzj6TOkUDUvabuK-85" value="" style="rounded=0;whiteSpace=wrap;html=1;" vertex="1" parent="vcSrWgzj6TOkUDUvabuK-84">
          <mxGeometry width="190" height="60" as="geometry" />
        </mxCell>
        <mxCell id="vcSrWgzj6TOkUDUvabuK-86" value="6. Process Offer" style="text;html=1;strokeColor=none;fillColor=none;align=center;verticalAlign=middle;whiteSpace=wrap;rounded=0;" vertex="1" parent="vcSrWgzj6TOkUDUvabuK-84">
          <mxGeometry x="40.19230769230769" y="20" width="109.6153846153846" height="20" as="geometry" />
        </mxCell>
        <mxCell id="vcSrWgzj6TOkUDUvabuK-88" style="edgeStyle=orthogonalEdgeStyle;rounded=0;orthogonalLoop=1;jettySize=auto;html=1;entryX=1;entryY=0.5;entryDx=0;entryDy=0;exitX=1;exitY=0.5;exitDx=0;exitDy=0;" edge="1" parent="vcSrWgzj6TOkUDUvabuK-84" source="vcSrWgzj6TOkUDUvabuK-85">
          <mxGeometry relative="1" as="geometry">
            <mxPoint x="250" y="30" as="targetPoint" />
          </mxGeometry>
        </mxCell>
        <mxCell id="vcSrWgzj6TOkUDUvabuK-90" style="edgeStyle=orthogonalEdgeStyle;rounded=0;orthogonalLoop=1;jettySize=auto;html=1;entryX=1;entryY=0.956;entryDx=0;entryDy=0;entryPerimeter=0;" edge="1" parent="vcSrWgzj6TOkUDUvabuK-113" target="vcSrWgzj6TOkUDUvabuK-71">
          <mxGeometry relative="1" as="geometry">
            <mxPoint x="595" y="670" as="sourcePoint" />
          </mxGeometry>
        </mxCell>
        <mxCell id="vcSrWgzj6TOkUDUvabuK-91" value="" style="endArrow=classic;html=1;entryX=1;entryY=0.9;entryDx=0;entryDy=0;entryPerimeter=0;" edge="1" parent="vcSrWgzj6TOkUDUvabuK-113" target="vcSrWgzj6TOkUDUvabuK-67">
          <mxGeometry width="50" height="50" relative="1" as="geometry">
            <mxPoint x="309" y="112" as="sourcePoint" />
            <mxPoint x="370" y="300" as="targetPoint" />
          </mxGeometry>
        </mxCell>
        <mxCell id="vcSrWgzj6TOkUDUvabuK-92" value="9. SDP Answer" style="text;html=1;strokeColor=none;fillColor=none;align=center;verticalAlign=middle;whiteSpace=wrap;rounded=0;" vertex="1" parent="vcSrWgzj6TOkUDUvabuK-113">
          <mxGeometry x="140" y="120" width="120" height="20" as="geometry" />
        </mxCell>
        <mxCell id="vcSrWgzj6TOkUDUvabuK-93" value="" style="endArrow=classic;html=1;exitX=0.375;exitY=1;exitDx=0;exitDy=0;exitPerimeter=0;entryX=-0.008;entryY=0.911;entryDx=0;entryDy=0;entryPerimeter=0;" edge="1" parent="vcSrWgzj6TOkUDUvabuK-113" source="vcSrWgzj6TOkUDUvabuK-67" target="vcSrWgzj6TOkUDUvabuK-71">
          <mxGeometry width="50" height="50" relative="1" as="geometry">
            <mxPoint x="320" y="450" as="sourcePoint" />
            <mxPoint x="370" y="400" as="targetPoint" />
            <Array as="points">
              <mxPoint x="30" y="200" />
              <mxPoint x="170" y="200" />
              <mxPoint x="170" y="164" />
            </Array>
          </mxGeometry>
        </mxCell>
        <mxCell id="vcSrWgzj6TOkUDUvabuK-94" value="10. Ice Candidate, roomId" style="text;html=1;strokeColor=none;fillColor=none;align=center;verticalAlign=middle;whiteSpace=wrap;rounded=0;" vertex="1" parent="vcSrWgzj6TOkUDUvabuK-113">
          <mxGeometry x="20" y="210" width="170" height="20" as="geometry" />
        </mxCell>
        <mxCell id="vcSrWgzj6TOkUDUvabuK-95" value="" style="group" vertex="1" connectable="0" parent="vcSrWgzj6TOkUDUvabuK-113">
          <mxGeometry x="80" y="650" width="120" height="60" as="geometry" />
        </mxCell>
        <mxCell id="vcSrWgzj6TOkUDUvabuK-96" value="" style="rounded=0;whiteSpace=wrap;html=1;" vertex="1" parent="vcSrWgzj6TOkUDUvabuK-95">
          <mxGeometry width="120" height="60" as="geometry" />
        </mxCell>
        <mxCell id="vcSrWgzj6TOkUDUvabuK-97" value="WebRTC endpoint" style="text;html=1;strokeColor=none;fillColor=none;align=center;verticalAlign=middle;whiteSpace=wrap;rounded=0;" vertex="1" parent="vcSrWgzj6TOkUDUvabuK-95">
          <mxGeometry x="10" y="20" width="100" height="20" as="geometry" />
        </mxCell>
        <mxCell id="vcSrWgzj6TOkUDUvabuK-98" value="" style="endArrow=classic;html=1;entryX=0;entryY=0.5;entryDx=0;entryDy=0;exitX=0;exitY=1;exitDx=0;exitDy=0;" edge="1" parent="vcSrWgzj6TOkUDUvabuK-113" source="vcSrWgzj6TOkUDUvabuK-71" target="vcSrWgzj6TOkUDUvabuK-96">
          <mxGeometry width="50" height="50" relative="1" as="geometry">
            <mxPoint x="370" y="320" as="sourcePoint" />
            <mxPoint x="-30" y="510" as="targetPoint" />
            <Array as="points">
              <mxPoint x="280" y="260" />
              <mxPoint x="50" y="260" />
              <mxPoint x="50" y="680" />
            </Array>
          </mxGeometry>
        </mxCell>
        <mxCell id="vcSrWgzj6TOkUDUvabuK-99" value="" style="group" vertex="1" connectable="0" parent="vcSrWgzj6TOkUDUvabuK-113">
          <mxGeometry x="320" y="330" width="220" height="60" as="geometry" />
        </mxCell>
        <mxCell id="vcSrWgzj6TOkUDUvabuK-100" value="" style="rounded=0;whiteSpace=wrap;html=1;" vertex="1" parent="vcSrWgzj6TOkUDUvabuK-99">
          <mxGeometry width="220" height="60" as="geometry" />
        </mxCell>
        <mxCell id="vcSrWgzj6TOkUDUvabuK-101" value="2.Get Room" style="text;html=1;strokeColor=none;fillColor=none;align=center;verticalAlign=middle;whiteSpace=wrap;rounded=0;" vertex="1" parent="vcSrWgzj6TOkUDUvabuK-99">
          <mxGeometry x="50" y="20" width="120" height="20" as="geometry" />
        </mxCell>
        <mxCell id="vcSrWgzj6TOkUDUvabuK-102" style="edgeStyle=orthogonalEdgeStyle;rounded=0;orthogonalLoop=1;jettySize=auto;html=1;entryX=0.458;entryY=0.033;entryDx=0;entryDy=0;entryPerimeter=0;" edge="1" parent="vcSrWgzj6TOkUDUvabuK-113" source="vcSrWgzj6TOkUDUvabuK-105" target="vcSrWgzj6TOkUDUvabuK-79">
          <mxGeometry relative="1" as="geometry" />
        </mxCell>
        <mxCell id="vcSrWgzj6TOkUDUvabuK-103" style="edgeStyle=orthogonalEdgeStyle;rounded=0;orthogonalLoop=1;jettySize=auto;html=1;entryX=1;entryY=0.5;entryDx=0;entryDy=0;" edge="1" parent="vcSrWgzj6TOkUDUvabuK-113" source="vcSrWgzj6TOkUDUvabuK-100" target="vcSrWgzj6TOkUDUvabuK-105">
          <mxGeometry relative="1" as="geometry" />
        </mxCell>
        <mxCell id="vcSrWgzj6TOkUDUvabuK-104" value="" style="group" vertex="1" connectable="0" parent="vcSrWgzj6TOkUDUvabuK-113">
          <mxGeometry x="120" y="330" width="120" height="60" as="geometry" />
        </mxCell>
        <mxCell id="vcSrWgzj6TOkUDUvabuK-105" value="" style="rounded=0;whiteSpace=wrap;html=1;" vertex="1" parent="vcSrWgzj6TOkUDUvabuK-104">
          <mxGeometry width="120" height="60" as="geometry" />
        </mxCell>
        <mxCell id="vcSrWgzj6TOkUDUvabuK-106" value="Room" style="text;html=1;strokeColor=none;fillColor=none;align=center;verticalAlign=middle;whiteSpace=wrap;rounded=0;" vertex="1" parent="vcSrWgzj6TOkUDUvabuK-104">
          <mxGeometry x="40" y="20" width="40" height="20" as="geometry" />
        </mxCell>
        <mxCell id="vcSrWgzj6TOkUDUvabuK-107" style="edgeStyle=orthogonalEdgeStyle;rounded=0;orthogonalLoop=1;jettySize=auto;html=1;" edge="1" parent="vcSrWgzj6TOkUDUvabuK-113" source="vcSrWgzj6TOkUDUvabuK-108" target="vcSrWgzj6TOkUDUvabuK-82">
          <mxGeometry relative="1" as="geometry" />
        </mxCell>
        <mxCell id="vcSrWgzj6TOkUDUvabuK-108" value="" style="rounded=0;whiteSpace=wrap;html=1;" vertex="1" parent="vcSrWgzj6TOkUDUvabuK-113">
          <mxGeometry x="344" y="440" width="120" height="60" as="geometry" />
        </mxCell>
        <mxCell id="vcSrWgzj6TOkUDUvabuK-109" value="Pipeline" style="text;html=1;strokeColor=none;fillColor=none;align=center;verticalAlign=middle;whiteSpace=wrap;rounded=0;" vertex="1" parent="vcSrWgzj6TOkUDUvabuK-113">
          <mxGeometry x="384" y="460" width="40" height="20" as="geometry" />
        </mxCell>
        <mxCell id="vcSrWgzj6TOkUDUvabuK-110" style="edgeStyle=orthogonalEdgeStyle;rounded=0;orthogonalLoop=1;jettySize=auto;html=1;entryX=0;entryY=0.5;entryDx=0;entryDy=0;" edge="1" parent="vcSrWgzj6TOkUDUvabuK-113" source="vcSrWgzj6TOkUDUvabuK-80" target="vcSrWgzj6TOkUDUvabuK-108">
          <mxGeometry relative="1" as="geometry" />
        </mxCell>
        <mxCell id="vcSrWgzj6TOkUDUvabuK-74" style="edgeStyle=orthogonalEdgeStyle;rounded=0;orthogonalLoop=1;jettySize=auto;html=1;entryX=0.541;entryY=-0.017;entryDx=0;entryDy=0;entryPerimeter=0;" edge="1" parent="vcSrWgzj6TOkUDUvabuK-113" source="vcSrWgzj6TOkUDUvabuK-75" target="vcSrWgzj6TOkUDUvabuK-100">
          <mxGeometry relative="1" as="geometry" />
        </mxCell>
        <mxCell id="vcSrWgzj6TOkUDUvabuK-111" style="edgeStyle=orthogonalEdgeStyle;rounded=0;orthogonalLoop=1;jettySize=auto;html=1;entryX=0.4;entryY=-0.067;entryDx=0;entryDy=0;entryPerimeter=0;" edge="1" parent="vcSrWgzj6TOkUDUvabuK-113" source="vcSrWgzj6TOkUDUvabuK-82" target="vcSrWgzj6TOkUDUvabuK-96">
          <mxGeometry relative="1" as="geometry">
            <mxPoint x="130" y="640" as="targetPoint" />
          </mxGeometry>
        </mxCell>
        <mxCell id="vcSrWgzj6TOkUDUvabuK-112" value="11, Process Ice Candidate" style="text;html=1;strokeColor=none;fillColor=none;align=center;verticalAlign=middle;whiteSpace=wrap;rounded=0;horizontal=0;" vertex="1" parent="vcSrWgzj6TOkUDUvabuK-113">
          <mxGeometry x="20" y="350" width="30" height="170" as="geometry" />
        </mxCell>
        <mxCell id="vcSrWgzj6TOkUDUvabuK-114" value="" style="rounded=0;whiteSpace=wrap;html=1;" vertex="1" parent="vcSrWgzj6TOkUDUvabuK-113">
          <mxGeometry x="504" y="650" width="120" height="60" as="geometry" />
        </mxCell>
        <mxCell id="vcSrWgzj6TOkUDUvabuK-116" value="8. SDP Answer" style="text;html=1;strokeColor=none;fillColor=none;align=center;verticalAlign=middle;whiteSpace=wrap;rounded=0;" vertex="1" parent="vcSrWgzj6TOkUDUvabuK-113">
          <mxGeometry x="604" y="410" width="120" height="20" as="geometry" />
        </mxCell>
        <mxCell id="vcSrWgzj6TOkUDUvabuK-122" value="Receiver" style="text;html=1;strokeColor=none;fillColor=none;align=center;verticalAlign=middle;whiteSpace=wrap;rounded=0;" vertex="1" parent="vcSrWgzj6TOkUDUvabuK-113">
          <mxGeometry x="20" y="80" width="40" height="20" as="geometry" />
        </mxCell>
        <mxCell id="vcSrWgzj6TOkUDUvabuK-115" value="Generate Answer" style="text;html=1;strokeColor=none;fillColor=none;align=center;verticalAlign=middle;whiteSpace=wrap;rounded=0;" vertex="1" parent="1">
          <mxGeometry x="570" y="1580" width="140" height="20" as="geometry" />
        </mxCell>
        <mxCell id="vcSrWgzj6TOkUDUvabuK-118" style="edgeStyle=orthogonalEdgeStyle;rounded=0;orthogonalLoop=1;jettySize=auto;html=1;entryX=0.5;entryY=0;entryDx=0;entryDy=0;" edge="1" parent="1" source="vcSrWgzj6TOkUDUvabuK-96" target="vcSrWgzj6TOkUDUvabuK-117">
          <mxGeometry relative="1" as="geometry" />
        </mxCell>
        <mxCell id="vcSrWgzj6TOkUDUvabuK-121" value="" style="group" vertex="1" connectable="0" parent="1">
          <mxGeometry x="160" y="1680" width="280" height="60" as="geometry" />
        </mxCell>
        <mxCell id="vcSrWgzj6TOkUDUvabuK-117" value="" style="rounded=0;whiteSpace=wrap;html=1;" vertex="1" parent="vcSrWgzj6TOkUDUvabuK-121">
          <mxGeometry width="280" height="60" as="geometry" />
        </mxCell>
        <mxCell id="vcSrWgzj6TOkUDUvabuK-120" value="Connect to the room presenter webrtc endpoint" style="text;html=1;strokeColor=none;fillColor=none;align=center;verticalAlign=middle;whiteSpace=wrap;rounded=0;" vertex="1" parent="vcSrWgzj6TOkUDUvabuK-121">
          <mxGeometry y="20" width="280" height="20" as="geometry" />
        </mxCell>
        <mxCell id="vcSrWgzj6TOkUDUvabuK-125" value="" style="endArrow=classic;html=1;exitX=0.857;exitY=0;exitDx=0;exitDy=0;exitPerimeter=0;entryX=0.337;entryY=1.067;entryDx=0;entryDy=0;entryPerimeter=0;" edge="1" parent="1" source="vcSrWgzj6TOkUDUvabuK-117" target="vcSrWgzj6TOkUDUvabuK-85">
          <mxGeometry width="50" height="50" relative="1" as="geometry">
            <mxPoint x="390" y="1590" as="sourcePoint" />
            <mxPoint x="440" y="1540" as="targetPoint" />
          </mxGeometry>
        </mxCell>
      </root>
    </mxGraphModel>
  </diagram>
</mxfile>
